{"asset":{"version":"2.0","generator":"babylon.js glTF exporter for 3dsmax 2017 v20220628.14"},"scene":0,"scenes":[{"nodes":[0]}],"nodes":[{"children":[1],"translation":[0.0,-0.04454465,0.0],"name":"2000x900"},{"children":[2,3],"translation":[0.0,-0.0200000014,0.0],"name":"base"},{"mesh":0,"translation":[0.0,0.0,0.5600001],"rotation":[0.7071068,0.0,0.0,0.7071067],"name":"Rectangle066"},{"mesh":1,"translation":[0.0,0.0,-0.5600001],"rotation":[0.7071068,0.0,0.0,0.7071067],"name":"Rectangle071"}],"meshes":[{"primitives":[{"attributes":{"POSITION":1,"NORMAL":2,"TEXCOORD_0":3},"indices":0,"material":0}],"name":"Rectangle066"},{"primitives":[{"attributes":{"POSITION":5,"NORMAL":6,"TEXCOORD_0":7},"indices":4,"material":0}],"name":"Rectangle071"}],"accessors":[{"bufferView":0,"componentType":5123,"count":3552,"type":"SCALAR","name":"accessorIndices"},{"bufferView":1,"componentType":5126,"count":980,"max":[0.349515617,0.0400000028,0.350000024],"min":[-0.349515617,-0.04000001,-0.350000024],"type":"VEC3","name":"accessorPositions"},{"bufferView":1,"byteOffset":11760,"componentType":5126,"count":980,"type":"VEC3","name":"accessorNormals"},{"bufferView":2,"componentType":5126,"count":980,"type":"VEC2","name":"accessorUVs"},{"bufferView":0,"byteOffset":7104,"componentType":5123,"count":3552,"type":"SCALAR","name":"accessorIndices"},{"bufferView":1,"byteOffset":23520,"componentType":5126,"count":980,"max":[0.349515617,0.0400000028,0.350000024],"min":[-0.349515617,-0.04000001,-0.350000024],"type":"VEC3","name":"accessorPositions"},{"bufferView":1,"byteOffset":35280,"componentType":5126,"count":980,"type":"VEC3","name":"accessorNormals"},{"bufferView":2,"byteOffset":7840,"componentType":5126,"count":980,"type":"VEC2","name":"accessorUVs"},{"bufferView":3,"componentType":5126,"count":284,"max":[20.0],"min":[0.0],"type":"SCALAR","name":"accessorAnimationInput"},{"bufferView":4,"componentType":5126,"count":284,"type":"VEC3","name":"accessorAnimationPositions"},{"bufferView":3,"byteOffset":1136,"componentType":5126,"count":601,"max":[20.0],"min":[0.0],"type":"SCALAR","name":"accessorAnimationInput"},{"bufferView":5,"componentType":5126,"count":601,"type":"VEC4","name":"accessorAnimationRotations"},{"bufferView":3,"byteOffset":3540,"componentType":5126,"count":221,"max":[20.0],"min":[0.0],"type":"SCALAR","name":"accessorAnimationInput"},{"bufferView":4,"byteOffset":3408,"componentType":5126,"count":221,"type":"VEC3","name":"accessorAnimationScales"},{"bufferView":3,"byteOffset":4424,"componentType":5126,"count":362,"max":[20.0],"min":[0.0],"type":"SCALAR","name":"accessorAnimationInput"},{"bufferView":4,"byteOffset":6060,"componentType":5126,"count":362,"type":"VEC3","name":"accessorAnimationPositions"},{"bufferView":3,"byteOffset":5872,"componentType":5126,"count":276,"max":[20.0],"min":[0.0],"type":"SCALAR","name":"accessorAnimationInput"},{"bufferView":4,"byteOffset":10404,"componentType":5126,"count":276,"type":"VEC3","name":"accessorAnimationScales"},{"bufferView":3,"byteOffset":6976,"componentType":5126,"count":272,"max":[20.0],"min":[0.0],"type":"SCALAR","name":"accessorAnimationInput"},{"bufferView":4,"byteOffset":13716,"componentType":5126,"count":272,"type":"VEC3","name":"accessorAnimationPositions"},{"bufferView":3,"byteOffset":8064,"componentType":5126,"count":208,"max":[20.0],"min":[0.0],"type":"SCALAR","name":"accessorAnimationInput"},{"bufferView":5,"byteOffset":9616,"componentType":5126,"count":208,"type":"VEC4","name":"accessorAnimationRotations"},{"bufferView":3,"byteOffset":8896,"componentType":5126,"count":238,"max":[20.0],"min":[0.0],"type":"SCALAR","name":"accessorAnimationInput"},{"bufferView":4,"byteOffset":16980,"componentType":5126,"count":238,"type":"VEC3","name":"accessorAnimationScales"},{"bufferView":3,"byteOffset":9848,"componentType":5126,"count":272,"max":[20.0],"min":[0.0],"type":"SCALAR","name":"accessorAnimationInput"},{"bufferView":4,"byteOffset":19836,"componentType":5126,"count":272,"type":"VEC3","name":"accessorAnimationPositions"},{"bufferView":3,"byteOffset":10936,"componentType":5126,"count":208,"max":[20.0],"min":[0.0],"type":"SCALAR","name":"accessorAnimationInput"},{"bufferView":5,"byteOffset":12944,"componentType":5126,"count":208,"type":"VEC4","name":"accessorAnimationRotations"},{"bufferView":3,"byteOffset":11768,"componentType":5126,"count":238,"max":[20.0],"min":[0.0],"type":"SCALAR","name":"accessorAnimationInput"},{"bufferView":4,"byteOffset":23100,"componentType":5126,"count":238,"type":"VEC3","name":"accessorAnimationScales"}],"bufferViews":[{"buffer":0,"byteLength":14208,"name":"bufferViewScalar"},{"buffer":0,"byteOffset":14208,"byteLength":47040,"byteStride":12,"name":"bufferViewFloatVec3"},{"buffer":0,"byteOffset":61248,"byteLength":15680,"byteStride":8,"name":"bufferViewFloatVec2"},{"buffer":0,"byteOffset":76928,"byteLength":12720,"name":"bufferViewAnimationFloatScalar"},{"buffer":0,"byteOffset":89648,"byteLength":25956,"name":"bufferViewAnimationFloatVec3"},{"buffer":0,"byteOffset":115604,"byteLength":16272,"name":"bufferViewAnimationFloatVec4"}],"buffers":[{"uri":"base.bin","byteLength":131876}],"materials":[{"pbrMetallicRoughness":{"baseColorTexture":{"index":0,"scale":0.299999982},"metallicFactor":0.0,"roughnessFactor":0.208142936},"name":"14 - Default"}],"textures":[{"sampler":0,"source":0,"name":"metal.jpg"}],"images":[{"uri":"textures/metal.jpg"}],"samplers":[{"magFilter":9729,"minFilter":9987}],"animations":[{"channels":[{"sampler":0,"target":{"node":0,"path":"translation"}},{"sampler":1,"target":{"node":0,"path":"rotation"}},{"sampler":2,"target":{"node":0,"path":"scale"}},{"sampler":3,"target":{"node":1,"path":"translation"}},{"sampler":4,"target":{"node":1,"path":"scale"}},{"sampler":5,"target":{"node":2,"path":"translation"}},{"sampler":6,"target":{"node":2,"path":"rotation"}},{"sampler":7,"target":{"node":2,"path":"scale"}},{"sampler":8,"target":{"node":3,"path":"translation"}},{"sampler":9,"target":{"node":3,"path":"rotation"}},{"sampler":10,"target":{"node":3,"path":"scale"}}],"samplers":[{"input":8,"output":9},{"input":10,"output":11},{"input":12,"output":13},{"input":14,"output":15},{"input":16,"output":17},{"input":18,"output":19},{"input":20,"output":21},{"input":22,"output":23},{"input":24,"output":25},{"input":26,"output":27},{"input":28,"output":29}],"name":"All Animations"}]}