{"asset":{"version":"2.0","generator":"babylon.js glTF exporter for 3dsmax 2017 v20220628.14"},"scene":0,"scenes":[{"nodes":[0,1,2,3,4,5,6,7,8,9,10,11,12,13,14,15,16,17]}],"nodes":[{"mesh":0,"translation":[0.0,0.33,0.0],"name":"2000x900_table"},{"mesh":1,"translation":[0.000131221837,-0.0200000014,-0.920002],"rotation":[-6.18172464E-08,-0.7071068,0.7071068,-6.18172464E-08],"scale":[1.0,-1.0,1.0],"name":"2000x900_wood"},{"mesh":2,"translation":[0.0,-0.0200000014,-0.56],"rotation":[0.7071068,0.0,0.0,0.7071067],"name":"2000x900_metal"},{"mesh":3,"translation":[0.005728516,-0.0200000014,-0.569999933],"rotation":[-6.18172464E-08,-0.7071068,0.7071068,-6.18172464E-08],"scale":[1.0,-1.0,1.0],"name":"1300x700_wood"},{"mesh":4,"translation":[0.0,-0.0200000014,0.530000031],"rotation":[0.7071068,0.0,0.0,0.7071067],"name":"1300x700_metal"},{"mesh":5,"translation":[0.0,0.33,0.0],"name":"1300x700_table"},{"mesh":6,"translation":[0.0,0.33,0.0],"name":"2400x900_table"},{"mesh":7,"translation":[0.000131103516,-0.0200000014,-1.11999989],"rotation":[-6.18172464E-08,-0.7071068,0.7071068,-6.18172464E-08],"scale":[1.0,-1.0,1.0],"name":"2400x900_wood"},{"mesh":8,"translation":[0.0,-0.0200000014,0.76000005],"rotation":[0.7071068,0.0,0.0,0.7071067],"name":"2400x900_metal"},{"mesh":9,"translation":[0.0,0.33,0.0],"name":"1600x800_table"},{"mesh":10,"translation":[0.000292968762,-0.0200000014,-0.7199999],"rotation":[-6.18172464E-08,-0.7071068,0.7071068,-6.18172464E-08],"scale":[1.0,-1.0,1.0],"name":"1600x800_wood"},{"mesh":11,"translation":[0.0,-0.0200000014,-0.56],"rotation":[0.7071068,0.0,0.0,0.7071067],"name":"1600x800_metal"},{"mesh":12,"translation":[3.051758E-08,0.0,0.111084476],"rotation":[0.0,0.7071068,0.0,0.7071067],"scale":[0.7209805,0.7209805,0.7209805],"name":"Sphere002"},{"mesh":13,"translation":[0.0,0.0,0.333696544],"rotation":[0.0,0.7071068,0.0,0.7071067],"scale":[0.7209805,0.7209805,0.7209805],"name":"Sphere001"},{"mesh":14,"translation":[-1.22070318E-07,0.0,0.565132856],"rotation":[0.0,0.7071068,0.0,0.7071067],"scale":[0.7209805,0.7209805,0.7209805],"name":"Sphere006"},{"mesh":15,"translation":[-6.103516E-08,0.0,-0.340903223],"rotation":[0.0,0.7071068,0.0,0.7071067],"scale":[0.7209805,0.7209805,0.7209805],"name":"Sphere004"},{"mesh":16,"translation":[-1.22070318E-07,0.0,-0.5651326],"rotation":[0.0,0.7071068,0.0,0.7071067],"scale":[0.7209805,0.7209805,0.7209805],"name":"Sphere005"},{"mesh":17,"translation":[-4.57763676E-08,0.0,-0.120830573],"rotation":[0.0,0.7071068,0.0,0.7071067],"scale":[0.7209805,0.7209805,0.7209805],"name":"Sphere003"}],"meshes":[{"primitives":[{"attributes":{"POSITION":1,"NORMAL":2,"TEXCOORD_0":3},"indices":0,"material":0}],"name":"2000x900_table"},{"primitives":[{"attributes":{"POSITION":5,"NORMAL":6,"TEXCOORD_0":7},"indices":4,"material":0}],"name":"2000x900_wood"},{"primitives":[{"attributes":{"POSITION":9,"NORMAL":10,"TEXCOORD_0":11},"indices":8,"material":1}],"name":"2000x900_metal"},{"primitives":[{"attributes":{"POSITION":13,"NORMAL":14,"TEXCOORD_0":15},"indices":12,"material":0}],"name":"1300x700_wood"},{"primitives":[{"attributes":{"POSITION":17,"NORMAL":18,"TEXCOORD_0":19},"indices":16,"material":1}],"name":"1300x700_metal"},{"primitives":[{"attributes":{"POSITION":21,"NORMAL":22,"TEXCOORD_0":23},"indices":20,"material":0}],"name":"1300x700_table"},{"primitives":[{"attributes":{"POSITION":25,"NORMAL":26,"TEXCOORD_0":27},"indices":24,"material":0}],"name":"2400x900_table"},{"primitives":[{"attributes":{"POSITION":29,"NORMAL":30,"TEXCOORD_0":31},"indices":28,"material":0}],"name":"2400x900_wood"},{"primitives":[{"attributes":{"POSITION":33,"NORMAL":34,"TEXCOORD_0":35},"indices":32,"material":1}],"name":"2400x900_metal"},{"primitives":[{"attributes":{"POSITION":37,"NORMAL":38,"TEXCOORD_0":39},"indices":36,"material":0}],"name":"1600x800_table"},{"primitives":[{"attributes":{"POSITION":41,"NORMAL":42,"TEXCOORD_0":43},"indices":40,"material":0}],"name":"1600x800_wood"},{"primitives":[{"attributes":{"POSITION":45,"NORMAL":46,"TEXCOORD_0":47},"indices":44,"material":1}],"name":"1600x800_metal"},{"primitives":[{"attributes":{"POSITION":49,"NORMAL":50,"TEXCOORD_0":51},"indices":48,"material":2}],"name":"Sphere002"},{"primitives":[{"attributes":{"POSITION":53,"NORMAL":54,"TEXCOORD_0":55},"indices":52,"material":0}],"name":"Sphere001"},{"primitives":[{"attributes":{"POSITION":57,"NORMAL":58,"TEXCOORD_0":59},"indices":56,"material":3}],"name":"Sphere006"},{"primitives":[{"attributes":{"POSITION":61,"NORMAL":62,"TEXCOORD_0":63},"indices":60,"material":4}],"name":"Sphere004"},{"primitives":[{"attributes":{"POSITION":65,"NORMAL":66,"TEXCOORD_0":67},"indices":64,"material":1}],"name":"Sphere005"},{"primitives":[{"attributes":{"POSITION":69,"NORMAL":70,"TEXCOORD_0":71},"indices":68,"material":5}],"name":"Sphere003"}],"accessors":[{"bufferView":0,"componentType":5123,"count":1764,"type":"SCALAR","name":"accessorIndices"},{"bufferView":1,"componentType":5126,"count":416,"max":[0.450000018,0.0400000028,1.0],"min":[-0.450000018,0.0,-1.0],"type":"VEC3","name":"accessorPositions"},{"bufferView":1,"byteOffset":4992,"componentType":5126,"count":416,"type":"VEC3","name":"accessorNormals"},{"bufferView":2,"componentType":5126,"count":416,"type":"VEC2","name":"accessorUVs"},{"bufferView":0,"byteOffset":3528,"componentType":5123,"count":13152,"type":"SCALAR","name":"accessorIndices"},{"bufferView":1,"byteOffset":9984,"componentType":5126,"count":2764,"max":[0.4499883,1.9200002,0.350000024],"min":[-0.4497267,-0.0800000057,-0.350000054],"type":"VEC3","name":"accessorPositions"},{"bufferView":1,"byteOffset":43152,"componentType":5126,"count":2764,"type":"VEC3","name":"accessorNormals"},{"bufferView":2,"byteOffset":3328,"componentType":5126,"count":2764,"type":"VEC2","name":"accessorUVs"},{"bufferView":0,"byteOffset":29832,"componentType":5123,"count":7104,"type":"SCALAR","name":"accessorIndices"},{"bufferView":1,"byteOffset":76320,"componentType":5126,"count":1960,"max":[0.349515617,1.16000009,0.350000024],"min":[-0.349515617,-0.04000001,-0.3500002],"type":"VEC3","name":"accessorPositions"},{"bufferView":1,"byteOffset":99840,"componentType":5126,"count":1960,"type":"VEC3","name":"accessorNormals"},{"bufferView":2,"byteOffset":25440,"componentType":5126,"count":1960,"type":"VEC2","name":"accessorUVs"},{"bufferView":0,"byteOffset":44040,"componentType":5123,"count":13152,"type":"SCALAR","name":"accessorIndices"},{"bufferView":1,"byteOffset":123360,"componentType":5126,"count":2764,"max":[0.353100836,1.21999991,0.350000024],"min":[-0.344272,-0.0800000355,-0.350000024],"type":"VEC3","name":"accessorPositions"},{"bufferView":1,"byteOffset":156528,"componentType":5126,"count":2764,"type":"VEC3","name":"accessorNormals"},{"bufferView":2,"byteOffset":41120,"componentType":5126,"count":2764,"type":"VEC2","name":"accessorUVs"},{"bufferView":0,"byteOffset":70344,"componentType":5123,"count":7104,"type":"SCALAR","name":"accessorIndices"},{"bufferView":1,"byteOffset":189696,"componentType":5126,"count":1960,"max":[0.3095161,0.0400000028,0.3500002],"min":[-0.309515357,-1.1,-0.350000024],"type":"VEC3","name":"accessorPositions"},{"bufferView":1,"byteOffset":213216,"componentType":5126,"count":1960,"type":"VEC3","name":"accessorNormals"},{"bufferView":2,"byteOffset":63232,"componentType":5126,"count":1960,"type":"VEC2","name":"accessorUVs"},{"bufferView":0,"byteOffset":84552,"componentType":5123,"count":1764,"type":"SCALAR","name":"accessorIndices"},{"bufferView":1,"byteOffset":236736,"componentType":5126,"count":408,"max":[0.350000024,0.0400000028,0.650000036],"min":[-0.350000024,0.0,-0.650000036],"type":"VEC3","name":"accessorPositions"},{"bufferView":1,"byteOffset":241632,"componentType":5126,"count":408,"type":"VEC3","name":"accessorNormals"},{"bufferView":2,"byteOffset":78912,"componentType":5126,"count":408,"type":"VEC2","name":"accessorUVs"},{"bufferView":0,"byteOffset":88080,"componentType":5123,"count":1764,"type":"SCALAR","name":"accessorIndices"},{"bufferView":1,"byteOffset":246528,"componentType":5126,"count":400,"max":[0.450000018,0.0400000028,1.2],"min":[-0.450000018,0.0,-1.2],"type":"VEC3","name":"accessorPositions"},{"bufferView":1,"byteOffset":251328,"componentType":5126,"count":400,"type":"VEC3","name":"accessorNormals"},{"bufferView":2,"byteOffset":82176,"componentType":5126,"count":400,"type":"VEC2","name":"accessorUVs"},{"bufferView":0,"byteOffset":91608,"componentType":5123,"count":13152,"type":"SCALAR","name":"accessorIndices"},{"bufferView":1,"byteOffset":256128,"componentType":5126,"count":2764,"max":[0.4499883,2.32000017,0.350000024],"min":[-0.449726522,-0.0800000057,-0.350000054],"type":"VEC3","name":"accessorPositions"},{"bufferView":1,"byteOffset":289296,"componentType":5126,"count":2764,"type":"VEC3","name":"accessorNormals"},{"bufferView":2,"byteOffset":85376,"componentType":5126,"count":2764,"type":"VEC2","name":"accessorUVs"},{"bufferView":0,"byteOffset":117912,"componentType":5123,"count":7104,"type":"SCALAR","name":"accessorIndices"},{"bufferView":1,"byteOffset":322464,"componentType":5126,"count":1960,"max":[0.349515617,0.0400000028,0.350000262],"min":[-0.349515617,-1.56000006,-0.350000024],"type":"VEC3","name":"accessorPositions"},{"bufferView":1,"byteOffset":345984,"componentType":5126,"count":1960,"type":"VEC3","name":"accessorNormals"},{"bufferView":2,"byteOffset":107488,"componentType":5126,"count":1960,"type":"VEC2","name":"accessorUVs"},{"bufferView":0,"byteOffset":132120,"componentType":5123,"count":1764,"type":"SCALAR","name":"accessorIndices"},{"bufferView":1,"byteOffset":369504,"componentType":5126,"count":408,"max":[0.4,0.0400000028,0.8],"min":[-0.4,0.0,-0.8],"type":"VEC3","name":"accessorPositions"},{"bufferView":1,"byteOffset":374400,"componentType":5126,"count":408,"type":"VEC3","name":"accessorNormals"},{"bufferView":2,"byteOffset":123168,"componentType":5126,"count":408,"type":"VEC2","name":"accessorUVs"},{"bufferView":0,"byteOffset":135648,"componentType":5123,"count":13152,"type":"SCALAR","name":"accessorIndices"},{"bufferView":1,"byteOffset":379296,"componentType":5126,"count":2764,"max":[0.398258567,1.5200001,0.350000024],"min":[-0.3976734,-0.08000002,-0.350000024],"type":"VEC3","name":"accessorPositions"},{"bufferView":1,"byteOffset":412464,"componentType":5126,"count":2764,"type":"VEC3","name":"accessorNormals"},{"bufferView":2,"byteOffset":126432,"componentType":5126,"count":2764,"type":"VEC2","name":"accessorUVs"},{"bufferView":0,"byteOffset":161952,"componentType":5123,"count":7104,"type":"SCALAR","name":"accessorIndices"},{"bufferView":1,"byteOffset":445632,"componentType":5126,"count":1960,"max":[0.349515617,1.16000009,0.350000024],"min":[-0.349515617,-0.04000001,-0.3500002],"type":"VEC3","name":"accessorPositions"},{"bufferView":1,"byteOffset":469152,"componentType":5126,"count":1960,"type":"VEC3","name":"accessorNormals"},{"bufferView":2,"byteOffset":148544,"componentType":5126,"count":1960,"type":"VEC2","name":"accessorUVs"},{"bufferView":0,"byteOffset":176160,"componentType":5123,"count":144,"type":"SCALAR","name":"accessorIndices"},{"bufferView":1,"byteOffset":492672,"componentType":5126,"count":43,"max":[0.1110858,0.1110858,0.1110858],"min":[-0.1110858,-0.1110858,-0.1110858],"type":"VEC3","name":"accessorPositions"},{"bufferView":1,"byteOffset":493188,"componentType":5126,"count":43,"type":"VEC3","name":"accessorNormals"},{"bufferView":2,"byteOffset":164224,"componentType":5126,"count":43,"type":"VEC2","name":"accessorUVs"},{"bufferView":0,"byteOffset":176448,"componentType":5123,"count":144,"type":"SCALAR","name":"accessorIndices"},{"bufferView":1,"byteOffset":493704,"componentType":5126,"count":43,"max":[0.1110858,0.1110858,0.1110858],"min":[-0.1110858,-0.1110858,-0.1110858],"type":"VEC3","name":"accessorPositions"},{"bufferView":1,"byteOffset":494220,"componentType":5126,"count":43,"type":"VEC3","name":"accessorNormals"},{"bufferView":2,"byteOffset":164568,"componentType":5126,"count":43,"type":"VEC2","name":"accessorUVs"},{"bufferView":0,"byteOffset":176736,"componentType":5123,"count":144,"type":"SCALAR","name":"accessorIndices"},{"bufferView":1,"byteOffset":494736,"componentType":5126,"count":43,"max":[0.1110858,0.1110858,0.1110858],"min":[-0.1110858,-0.1110858,-0.1110858],"type":"VEC3","name":"accessorPositions"},{"bufferView":1,"byteOffset":495252,"componentType":5126,"count":43,"type":"VEC3","name":"accessorNormals"},{"bufferView":2,"byteOffset":164912,"componentType":5126,"count":43,"type":"VEC2","name":"accessorUVs"},{"bufferView":0,"byteOffset":177024,"componentType":5123,"count":144,"type":"SCALAR","name":"accessorIndices"},{"bufferView":1,"byteOffset":495768,"componentType":5126,"count":43,"max":[0.1110858,0.1110858,0.1110858],"min":[-0.1110858,-0.1110858,-0.1110858],"type":"VEC3","name":"accessorPositions"},{"bufferView":1,"byteOffset":496284,"componentType":5126,"count":43,"type":"VEC3","name":"accessorNormals"},{"bufferView":2,"byteOffset":165256,"componentType":5126,"count":43,"type":"VEC2","name":"accessorUVs"},{"bufferView":0,"byteOffset":177312,"componentType":5123,"count":144,"type":"SCALAR","name":"accessorIndices"},{"bufferView":1,"byteOffset":496800,"componentType":5126,"count":43,"max":[0.1110858,0.1110858,0.1110858],"min":[-0.1110858,-0.1110858,-0.1110858],"type":"VEC3","name":"accessorPositions"},{"bufferView":1,"byteOffset":497316,"componentType":5126,"count":43,"type":"VEC3","name":"accessorNormals"},{"bufferView":2,"byteOffset":165600,"componentType":5126,"count":43,"type":"VEC2","name":"accessorUVs"},{"bufferView":0,"byteOffset":177600,"componentType":5123,"count":144,"type":"SCALAR","name":"accessorIndices"},{"bufferView":1,"byteOffset":497832,"componentType":5126,"count":43,"max":[0.1110858,0.1110858,0.1110858],"min":[-0.1110858,-0.1110858,-0.1110858],"type":"VEC3","name":"accessorPositions"},{"bufferView":1,"byteOffset":498348,"componentType":5126,"count":43,"type":"VEC3","name":"accessorNormals"},{"bufferView":2,"byteOffset":165944,"componentType":5126,"count":43,"type":"VEC2","name":"accessorUVs"}],"bufferViews":[{"buffer":0,"byteLength":177888,"name":"bufferViewScalar"},{"buffer":0,"byteOffset":177888,"byteLength":498864,"byteStride":12,"name":"bufferViewFloatVec3"},{"buffer":0,"byteOffset":676752,"byteLength":166288,"byteStride":8,"name":"bufferViewFloatVec2"}],"buffers":[{"uri":"rectangle.bin","byteLength":843040}],"materials":[{"pbrMetallicRoughness":{"baseColorTexture":{"index":0},"metallicFactor":0.0,"roughnessFactor":0.250466347},"name":"silk-matte"},{"pbrMetallicRoughness":{"baseColorTexture":{"index":1},"metallicFactor":0.0,"roughnessFactor":0.208142936},"name":"metal"},{"pbrMetallicRoughness":{"baseColorTexture":{"index":2},"metallicFactor":0.0,"roughnessFactor":0.24783428},"name":"graphit"},{"pbrMetallicRoughness":{"baseColorTexture":{"index":3},"metallicFactor":0.0,"roughnessFactor":0.24783428},"name":"terra"},{"pbrMetallicRoughness":{"baseColorTexture":{"index":4},"metallicFactor":0.0,"roughnessFactor":0.24783428},"name":"white"},{"pbrMetallicRoughness":{"baseColorTexture":{"index":5},"metallicFactor":0.0,"roughnessFactor":0.3186438},"name":"matte"}],"textures":[{"sampler":0,"source":0,"name":"silk-matte.jpg"},{"sampler":0,"source":1,"name":"metal.jpg"},{"sampler":0,"source":2,"name":"graphit.jpg"},{"sampler":0,"source":3,"name":"terra.jpg"},{"sampler":0,"source":4,"name":"white.jpg"},{"sampler":0,"source":5,"name":"matte.jpg"}],"images":[{"uri":"textures/silk-matte.jpg"},{"uri":"textures/metal.jpg"},{"uri":"textures/graphit.jpg"},{"uri":"textures/terra.jpg"},{"uri":"textures/white.jpg"},{"uri":"textures/matte.jpg"}],"samplers":[{"magFilter":9729,"minFilter":9987}]}