{"asset":{"version":"2.0","generator":"babylon.js glTF exporter for 3dsmax 2017 v20220628.14"},"scene":0,"scenes":[{"nodes":[0]}],"nodes":[{"children":[1,2],"translation":[0.0,-0.04454465,0.0],"name":"2000x900"},{"mesh":0,"translation":[0.0,0.33,0.0],"name":"table"},{"children":[3,4],"translation":[0.0,-0.0200000014,0.0],"name":"base"},{"mesh":1,"translation":[0.0,0.0,0.5600001],"rotation":[0.7071068,0.0,0.0,0.7071067],"name":"Rectangle066"},{"mesh":2,"translation":[0.0,0.0,-0.5600001],"rotation":[0.7071068,0.0,0.0,0.7071067],"name":"Rectangle071"}],"meshes":[{"primitives":[{"attributes":{"POSITION":1,"NORMAL":2,"TEXCOORD_0":3},"indices":0,"material":0}],"name":"table"},{"primitives":[{"attributes":{"POSITION":5,"NORMAL":6,"TEXCOORD_0":7},"indices":4,"material":1}],"name":"Rectangle066"},{"primitives":[{"attributes":{"POSITION":9,"NORMAL":10,"TEXCOORD_0":11},"indices":8,"material":1}],"name":"Rectangle071"}],"accessors":[{"bufferView":0,"componentType":5123,"count":7908,"type":"SCALAR","name":"accessorIndices"},{"bufferView":1,"componentType":5126,"count":2160,"max":[0.450000018,0.0400000028,1.0],"min":[-0.450000018,0.0,-1.0],"type":"VEC3","name":"accessorPositions"},{"bufferView":1,"byteOffset":25920,"componentType":5126,"count":2160,"type":"VEC3","name":"accessorNormals"},{"bufferView":2,"componentType":5126,"count":2160,"type":"VEC2","name":"accessorUVs"},{"bufferView":0,"byteOffset":15816,"componentType":5123,"count":3552,"type":"SCALAR","name":"accessorIndices"},{"bufferView":1,"byteOffset":51840,"componentType":5126,"count":980,"max":[0.349515617,0.0400000028,0.350000024],"min":[-0.349515617,-0.04000001,-0.350000024],"type":"VEC3","name":"accessorPositions"},{"bufferView":1,"byteOffset":63600,"componentType":5126,"count":980,"type":"VEC3","name":"accessorNormals"},{"bufferView":2,"byteOffset":17280,"componentType":5126,"count":980,"type":"VEC2","name":"accessorUVs"},{"bufferView":0,"byteOffset":22920,"componentType":5123,"count":3552,"type":"SCALAR","name":"accessorIndices"},{"bufferView":1,"byteOffset":75360,"componentType":5126,"count":980,"max":[0.349515617,0.0400000028,0.350000024],"min":[-0.349515617,-0.04000001,-0.350000024],"type":"VEC3","name":"accessorPositions"},{"bufferView":1,"byteOffset":87120,"componentType":5126,"count":980,"type":"VEC3","name":"accessorNormals"},{"bufferView":2,"byteOffset":25120,"componentType":5126,"count":980,"type":"VEC2","name":"accessorUVs"},{"bufferView":3,"componentType":5126,"count":284,"max":[20.0],"min":[0.0],"type":"SCALAR","name":"accessorAnimationInput"},{"bufferView":4,"componentType":5126,"count":284,"type":"VEC3","name":"accessorAnimationPositions"},{"bufferView":3,"byteOffset":1136,"componentType":5126,"count":601,"max":[20.0],"min":[0.0],"type":"SCALAR","name":"accessorAnimationInput"},{"bufferView":5,"componentType":5126,"count":601,"type":"VEC4","name":"accessorAnimationRotations"},{"bufferView":3,"byteOffset":3540,"componentType":5126,"count":221,"max":[20.0],"min":[0.0],"type":"SCALAR","name":"accessorAnimationInput"},{"bufferView":4,"byteOffset":3408,"componentType":5126,"count":221,"type":"VEC3","name":"accessorAnimationScales"},{"bufferView":3,"byteOffset":4424,"componentType":5126,"count":350,"max":[20.0],"min":[0.0],"type":"SCALAR","name":"accessorAnimationInput"},{"bufferView":4,"byteOffset":6060,"componentType":5126,"count":350,"type":"VEC3","name":"accessorAnimationPositions"},{"bufferView":3,"byteOffset":5824,"componentType":5126,"count":276,"max":[20.0],"min":[0.0],"type":"SCALAR","name":"accessorAnimationInput"},{"bufferView":4,"byteOffset":10260,"componentType":5126,"count":276,"type":"VEC3","name":"accessorAnimationScales"},{"bufferView":3,"byteOffset":6928,"componentType":5126,"count":362,"max":[20.0],"min":[0.0],"type":"SCALAR","name":"accessorAnimationInput"},{"bufferView":4,"byteOffset":13572,"componentType":5126,"count":362,"type":"VEC3","name":"accessorAnimationPositions"},{"bufferView":3,"byteOffset":8376,"componentType":5126,"count":276,"max":[20.0],"min":[0.0],"type":"SCALAR","name":"accessorAnimationInput"},{"bufferView":4,"byteOffset":17916,"componentType":5126,"count":276,"type":"VEC3","name":"accessorAnimationScales"},{"bufferView":3,"byteOffset":9480,"componentType":5126,"count":272,"max":[20.0],"min":[0.0],"type":"SCALAR","name":"accessorAnimationInput"},{"bufferView":4,"byteOffset":21228,"componentType":5126,"count":272,"type":"VEC3","name":"accessorAnimationPositions"},{"bufferView":3,"byteOffset":10568,"componentType":5126,"count":208,"max":[20.0],"min":[0.0],"type":"SCALAR","name":"accessorAnimationInput"},{"bufferView":5,"byteOffset":9616,"componentType":5126,"count":208,"type":"VEC4","name":"accessorAnimationRotations"},{"bufferView":3,"byteOffset":11400,"componentType":5126,"count":238,"max":[20.0],"min":[0.0],"type":"SCALAR","name":"accessorAnimationInput"},{"bufferView":4,"byteOffset":24492,"componentType":5126,"count":238,"type":"VEC3","name":"accessorAnimationScales"},{"bufferView":3,"byteOffset":12352,"componentType":5126,"count":272,"max":[20.0],"min":[0.0],"type":"SCALAR","name":"accessorAnimationInput"},{"bufferView":4,"byteOffset":27348,"componentType":5126,"count":272,"type":"VEC3","name":"accessorAnimationPositions"},{"bufferView":3,"byteOffset":13440,"componentType":5126,"count":208,"max":[20.0],"min":[0.0],"type":"SCALAR","name":"accessorAnimationInput"},{"bufferView":5,"byteOffset":12944,"componentType":5126,"count":208,"type":"VEC4","name":"accessorAnimationRotations"},{"bufferView":3,"byteOffset":14272,"componentType":5126,"count":238,"max":[20.0],"min":[0.0],"type":"SCALAR","name":"accessorAnimationInput"},{"bufferView":4,"byteOffset":30612,"componentType":5126,"count":238,"type":"VEC3","name":"accessorAnimationScales"}],"bufferViews":[{"buffer":0,"byteLength":30024,"name":"bufferViewScalar"},{"buffer":0,"byteOffset":30024,"byteLength":98880,"byteStride":12,"name":"bufferViewFloatVec3"},{"buffer":0,"byteOffset":128904,"byteLength":32960,"byteStride":8,"name":"bufferViewFloatVec2"},{"buffer":0,"byteOffset":161864,"byteLength":15224,"name":"bufferViewAnimationFloatScalar"},{"buffer":0,"byteOffset":177088,"byteLength":33468,"name":"bufferViewAnimationFloatVec3"},{"buffer":0,"byteOffset":210556,"byteLength":16272,"name":"bufferViewAnimationFloatVec4"}],"buffers":[{"uri":"scene.bin","byteLength":226828}],"materials":[{"pbrMetallicRoughness":{"baseColorTexture":{"index":0},"metallicFactor":0.0,"roughnessFactor":0.250466347},"name":"silk-matte nocolor"},{"pbrMetallicRoughness":{"baseColorTexture":{"index":1,"scale":0.299999982},"metallicFactor":0.0,"roughnessFactor":0.208142936},"name":"14 - Default"}],"textures":[{"sampler":0,"source":0,"name":"Oak (42)_medium.jpg"},{"sampler":0,"source":1,"name":"metal.jpg"}],"images":[{"uri":"textures/Oak (42)_medium.jpg"},{"uri":"textures/metal.jpg"}],"samplers":[{"magFilter":9729,"minFilter":9987}],"animations":[{"channels":[{"sampler":0,"target":{"node":0,"path":"translation"}},{"sampler":1,"target":{"node":0,"path":"rotation"}},{"sampler":2,"target":{"node":0,"path":"scale"}},{"sampler":3,"target":{"node":1,"path":"translation"}},{"sampler":4,"target":{"node":1,"path":"scale"}},{"sampler":5,"target":{"node":2,"path":"translation"}},{"sampler":6,"target":{"node":2,"path":"scale"}},{"sampler":7,"target":{"node":3,"path":"translation"}},{"sampler":8,"target":{"node":3,"path":"rotation"}},{"sampler":9,"target":{"node":3,"path":"scale"}},{"sampler":10,"target":{"node":4,"path":"translation"}},{"sampler":11,"target":{"node":4,"path":"rotation"}},{"sampler":12,"target":{"node":4,"path":"scale"}}],"samplers":[{"input":12,"output":13},{"input":14,"output":15},{"input":16,"output":17},{"input":18,"output":19},{"input":20,"output":21},{"input":22,"output":23},{"input":24,"output":25},{"input":26,"output":27},{"input":28,"output":29},{"input":30,"output":31},{"input":32,"output":33},{"input":34,"output":35},{"input":36,"output":37}],"name":"All Animations"}]}