{"asset":{"version":"2.0","generator":"babylon.js glTF exporter for 3dsmax 2017 v20220628.14"},"scene":0,
"scenes":[{"nodes":[0]}],"nodes":[{"children":[1],"translation":[0.0,-0.04454465,0.0],"name":"2000x900"},
{"mesh":0,"translation":[0.0,0.33,0.0],"name":"table"}],"meshes":[{"primitives":[{"attributes":{"POSITION":1,"NORMAL":2,"TEXCOORD_0":3},
"indices":0,"material":0}],"name":"table"}],"accessors":[{"bufferView":0,"componentType":5123,"count":7908,
"type":"SCALAR","name":"accessorIndices"},{"bufferView":1,"componentType":5126,
"count":2160,"max":[0.450000018,0.0400000028,1.0],"min":[-0.450000018,0.0,-1.0],
"type":"VEC3","name":"accessorPositions"},{"bufferView":1,"byteOffset":25920,
"componentType":5126,"count":2160,"type":"VEC3","name":"accessorNormals"},
{"bufferView":2,"componentType":5126,"count":2160,"type":"VEC2","name":"accessorUVs"},
{"bufferView":3,"componentType":5126,"count":284,"max":[20.0],"min":[0.0],"type":"SCALAR","name":"accessorAnimationInput"},
{"bufferView":4,"componentType":5126,"count":284,"type":"VEC3","name":"accessorAnimationPositions"},
{"bufferView":3,"byteOffset":1136,"componentType":5126,"count":601,"max":[20.0],"min":[0.0],
"type":"SCALAR","name":"accessorAnimationInput"},{"bufferView":5,
"componentType":5126,"count":601,"type":"VEC4","name":"accessorAnimationRotations"},
{"bufferView":3,"byteOffset":3540,"componentType":5126,"count":221,"max":[20.0],"min":[0.0],"type":"SCALAR",
"name":"accessorAnimationInput"},{"bufferView":4,"byteOffset":3408,"componentType":5126,"count":221,
"type":"VEC3","name":"accessorAnimationScales"},{"bufferView":3,"byteOffset":4424,
"componentType":5126,"count":350,"max":[20.0],"min":[0.0],"type":"SCALAR","name":"accessorAnimationInput"},
{"bufferView":4,"byteOffset":6060,"componentType":5126,"count":350,"type":"VEC3","name":"accessorAnimationPositions"},
{"bufferView":3,"byteOffset":5824,"componentType":5126,"count":276,"max":[20.0],"min":[0.0],
"type":"SCALAR","name":"accessorAnimationInput"},{"bufferView":4,"byteOffset":10260,
"componentType":5126,"count":276,"type":"VEC3","name":"accessorAnimationScales"}],
"bufferViews":[{"buffer":0,"byteLength":15816,"name":"bufferViewScalar"},
{"buffer":0,"byteOffset":15816,"byteLength":51840,"byteStride":12,"name":
"bufferViewFloatVec3"},{"buffer":0,"byteOffset":67656,"byteLength":17280,
"byteStride":8,"name":"bufferViewFloatVec2"},
{"buffer":0,"byteOffset":84936,"byteLength":6928,"name":"bufferViewAnimationFloatScalar"},
{"buffer":0,"byteOffset":91864,"byteLength":13572,"name":"bufferViewAnimationFloatVec3"},
{"buffer":0,"byteOffset":105436,"byteLength":9616,"name":"bufferViewAnimationFloatVec4"}],
"buffers":[{"uri":"table.bin","byteLength":115052}],
"materials":[{"pbrMetallicRoughness":
{"baseColorTexture":{"index":0},"metallicFactor":0.0,"roughnessFactor":0.250466347},
"name":"silk-matte nocolor"}],
"textures":[{"sampler":0,"source":0,"name":"Oak (42)_medium.jpg"}],
"images":[{"uri":"textures/Oak (42)_medium.jpg"}],
"samplers":[{"magFilter":9729,"minFilter":9987}],"animations":[{"channels":[{"sampler":0,"target":{"node":0,"path":"translation"}},{"sampler":1,"target":{"node":0,"path":"rotation"}},{"sampler":2,"target":{"node":0,"path":"scale"}},{"sampler":3,"target":{"node":1,"path":"translation"}},{"sampler":4,"target":{"node":1,"path":"scale"}}],"samplers":[{"input":4,"output":5},{"input":6,"output":7},
{"input":8,"output":9},{"input":10,"output":11},{"input":12,"output":13}],"name":"All Animations"}]}