<svg width="216" height="151" viewBox="0 0 216 151" fill="none" xmlns="http://www.w3.org/2000/svg">
<path d="M98.8562 42.0896C98.8562 42.2202 98.8589 42.3493 98.8645 42.4781L66 48.192V42.0896C66 40.0432 66.1461 38.0305 66.429 36.0625L98.8645 41.7023C98.8589 41.8299 98.8562 41.9601 98.8562 42.0896V42.0896Z" fill="#F58F63"/>
<path d="M150.18 42.0904V48.1928L117.314 42.4788C117.32 42.3501 117.323 42.221 117.323 42.0904C117.323 41.9609 117.32 41.8306 117.314 41.703L149.751 36.0625C150.033 38.0313 150.18 40.0444 150.18 42.0904Z" fill="#F58F63"/>
<path d="M147.189 26.4782L116.273 37.8134C116.154 37.5836 116.024 37.3591 115.885 37.1406L141.152 16.041C143.635 19.1876 145.678 22.697 147.189 26.4782V26.4782Z" fill="#F58F63"/>
<path d="M134.138 9.0268L113.038 34.2938C112.821 34.1556 112.597 34.0246 112.367 33.9057L123.702 2.99023C127.482 4.50051 130.991 6.54387 134.138 9.0268Z" fill="#F58F63"/>
<path d="M114.117 0.428966L108.478 32.8653C108.35 32.8596 108.219 32.8573 108.09 32.8573C107.96 32.8573 107.83 32.8596 107.702 32.8653L102.062 0.428966C104.031 0.146144 106.044 0 108.09 0C110.137 0 112.149 0.146144 114.117 0.428966V0.428966Z" fill="#F58F63"/>
<path d="M103.813 33.9057C103.583 34.0246 103.358 34.1556 103.14 34.2938L82.041 9.0268C85.1876 6.5435 88.697 4.50127 92.4767 2.99023L103.813 33.9057Z" fill="#F58F63"/>
<path d="M150.18 58.7882V75.7613L117.315 47.7305C117.323 47.3723 117.314 47.2133 117.323 46.832L150.18 58.7882Z" fill="#F58F63"/>
<path d="M66 58.7882V75.7613L98.8645 47.7305C98.8562 47.3723 98.8653 47.2133 98.857 46.832L66 58.7882V58.7882Z" fill="#F58F63"/>
<path d="M100.293 37.1406C100.155 37.3583 100.024 37.5824 99.905 37.8123L68.9907 26.477C70.501 22.6966 72.5447 19.1876 75.0273 16.041L100.293 37.1406Z" fill="#F58F63"/>
<path d="M110.693 50.9157H105.487L103.554 40H112.626L110.693 50.9157Z" fill="#F58F63"/>
<path d="M112.254 63.2138C112.254 65.548 110.386 67.4478 108.09 67.4478C105.793 67.4478 103.925 65.5484 103.925 63.2138C103.925 60.8797 105.793 58.9798 108.09 58.9798C110.386 58.9798 112.254 60.8793 112.254 63.2138ZM114.601 56.5938C112.862 54.8254 110.55 53.8516 108.09 53.8516C105.63 53.8516 103.318 54.8257 101.578 56.5938C99.8386 58.3623 98.8804 60.7131 98.8804 63.2138C98.8804 65.7142 99.8386 68.0661 101.578 69.8339C103.318 71.6027 105.63 72.5761 108.09 72.5761C110.55 72.5761 112.862 71.6023 114.601 69.8339C116.341 68.0661 117.299 65.7146 117.299 63.2138C117.299 60.7135 116.341 58.3623 114.601 56.5938Z" fill="#F58F63"/>
<path fill-rule="evenodd" clip-rule="evenodd" d="M91.7256 83.1583L95.6101 75.8848H120.57L124.454 83.1583L108.09 90.3522L91.7256 83.1583Z" fill="#F58F63"/>
<path d="M6.192 139V108.808H14.16V139H18.192V105.4H2.16V139H6.192ZM38.2958 130.696V113.704C38.2958 108.52 34.9358 105.016 30.2798 105.016C25.6238 105.016 22.2158 108.52 22.2158 113.704V130.696C22.2158 135.88 25.6238 139.384 30.2798 139.384C34.9358 139.384 38.2958 135.88 38.2958 130.696ZM34.2638 131.128C34.2638 134.104 32.5358 135.976 30.2798 135.976C27.9278 135.976 26.2958 134.104 26.2958 131.176V113.224C26.2958 110.296 27.9278 108.424 30.2798 108.424C32.5358 108.424 34.2638 110.296 34.2638 113.224V131.128ZM55.0039 135.592H46.3639V123.88H53.9959V120.472H46.3639V108.808H55.0039V105.4H42.3319V139H55.0039V135.592ZM65.9415 105.016C61.2375 105.016 57.9255 108.52 57.9255 113.704V115.72H61.9575V113.224C61.9575 110.296 63.6855 108.424 65.9415 108.424C67.9575 108.424 69.4935 110.2 69.4935 112.936V115.864C69.4935 118.408 67.7655 120.04 65.5095 120.04H63.6375V123.448H66.2775C68.5335 123.448 70.2135 125.176 70.2135 127.912V131.128C70.2135 134.104 68.3895 135.976 65.9895 135.976C63.6375 135.976 61.9575 134.104 61.9575 131.128V128.728H57.9255V130.696C57.9255 135.88 61.2375 139.384 65.9895 139.384C70.7895 139.384 74.2935 136.12 74.2935 131.224V128.536C74.2935 125.224 72.6135 122.776 70.0695 121.624C72.1815 120.376 73.5255 118.264 73.5255 115.336V112.792C73.5255 108.136 70.3575 105.016 65.9415 105.016ZM94.6856 105.4H80.1896V110.488C80.1896 128.968 79.2296 133.576 78.0296 135.592H75.3416V145.912H79.3736V139H94.0136V145.912H98.0456V135.592H94.6856V105.4ZM83.9336 110.488V108.808H90.6056V135.592H81.6776C83.4536 132.472 83.9336 125.704 83.9336 110.488ZM130.226 139H134.498L126.578 121.624L133.778 105.4H129.554L122.45 121.576V105.4H118.37V139H122.45V121.576L130.226 139ZM118.322 121.576L111.218 105.4H106.994L114.242 121.624L106.274 139H110.546L118.322 121.576ZM140.333 139L149.261 115.624V139H153.341V105.4H149.933L141.005 128.776V105.4H136.973V139H140.333ZM164.942 105.016C160.238 105.016 156.926 108.52 156.926 113.704V115.72H160.958V113.224C160.958 110.296 162.686 108.424 164.942 108.424C166.958 108.424 168.494 110.2 168.494 112.936V115.864C168.494 118.408 166.766 120.04 164.51 120.04H162.638V123.448H165.278C167.534 123.448 169.214 125.176 169.214 127.912V131.128C169.214 134.104 167.39 135.976 164.99 135.976C162.638 135.976 160.958 134.104 160.958 131.128V128.728H156.926V130.696C156.926 135.88 160.238 139.384 164.99 139.384C169.79 139.384 173.294 136.12 173.294 131.224V128.536C173.294 125.224 171.614 122.776 169.07 121.624C171.182 120.376 172.526 118.264 172.526 115.336V112.792C172.526 108.136 169.358 105.016 164.942 105.016ZM180.755 139V123.88H188.771V139H192.803V105.4H188.771V120.472H180.755V105.4H176.723V139H180.755ZM200.473 139L209.401 115.624V139H213.481V105.4H210.073L201.145 128.776V105.4H197.113V139H200.473Z" fill="#F58F63"/>
</svg>
