<svg width="116" height="156" viewBox="0 0 116 156" fill="none" xmlns="http://www.w3.org/2000/svg">
<g clip-path="url(#clip0_22_445)">
<path d="M66.3062 0.589793L59.2801 40.9579H56.72L49.6939 0.589793C52.4061 0.200257 55.1808 0 57.9998 0C60.8211 0 63.5931 0.200257 66.3057 0.589793H66.3062ZM45.9578 40.9579L22.1049 12.4256C26.4412 9.00763 31.2769 6.19568 36.4859 4.11625L50.0096 40.9579H45.9582H45.9578ZM43.5792 50.8965L4.12179 36.4451C6.20266 31.2419 9.01907 26.4111 12.44 22.0801L43.5792 48.0552V50.8965ZM43.5792 58.7654L0.000488281 66.3339V57.9341C0.000488281 55.1178 0.202289 52.3475 0.591381 49.6383L43.5792 57.1045V58.7654ZM0.000488281 80.9176V104.281L43.5792 67.153V65.0779L0.000488281 80.9176ZM116 80.9176V104.281L72.4209 67.1525V65.0779L116 80.9176ZM116 57.9341V66.3339L72.4209 58.7659V57.1041L115.41 49.637C115.799 52.3475 116 55.1182 116 57.9341ZM111.88 36.4455L72.4209 50.8965V48.0543L103.561 22.0801C106.982 26.4107 109.798 31.2415 111.88 36.446V36.4455ZM93.8943 12.4261L70.041 40.9583H65.9918L79.5151 4.11669C84.7232 6.1948 89.5594 9.00851 93.8948 12.4261H93.8943Z" fill="white"/>
<path d="M40.6207 103.924H34.0452V124.813H36.1854V105.779H38.4804V124.813H40.6207V103.924ZM48.5419 125.096C46.574 125.096 45.4819 124.207 45.4819 121.748V107.504C45.4819 104.701 47.0295 103.641 48.8857 103.641C50.8839 103.641 51.9457 104.529 51.9457 106.989V121.233C51.9457 124.036 50.3985 125.096 48.5419 125.096ZM48.6839 105.585C47.8327 105.585 47.6313 106.216 47.6313 107.217V120.778C47.6313 122.834 48.2025 123.151 48.8861 123.151C49.6252 123.151 49.7971 122.52 49.7971 121.52V107.959C49.7971 105.903 49.2559 105.585 48.6843 105.585H48.6839ZM58.9643 114.098H60.9972V113.48H58.9643V105.779H61.771V103.924H56.8245V124.813H62.059V122.958H58.9647V114.098H58.9643ZM68.8283 114.282L68.798 114.059C70.2422 113.801 71.2389 112.745 71.2389 110.084V107.508C71.2389 104.705 70.1261 103.645 68.4669 103.645C66.9756 103.645 66.262 104.534 66.262 106.311C66.262 107.766 66.3227 109.196 66.5461 111.802H68.583C66.9752 107.796 66.8037 107.251 66.8037 106.453C66.8037 105.821 67.1172 105.594 67.6936 105.594C69.0727 105.594 69.0982 106.226 69.0982 107.226V111.802C69.0982 113.201 68.5526 113.944 67.6069 113.944H66.9624V114.511H67.603C68.6898 114.511 69.2016 115.193 69.2016 116.94V120.77C69.2016 122.83 68.6045 123.143 68.033 123.143C67.2891 123.143 67.0055 122.057 66.9497 120.229L66.8639 116.855H66.4594L66.3737 120.314C66.3179 123.027 67.1471 125.092 68.8621 125.092C70.4871 125.092 71.3422 124.203 71.3422 121.744V118.369C71.3422 116.455 71.1703 114.682 70.3706 114.115L68.8279 114.282H68.8283ZM81.8934 122.958V103.924H76.9425V104.182C76.9425 118.948 76.9425 121.7 76.0575 122.958H75.482V127.874H76.0575L77.1144 124.813H81.1245L82.177 127.874H82.7525V122.958H81.8934ZM77.4881 122.958C77.7163 119.867 77.7163 115.398 77.7163 105.778H79.7532V122.958H77.4881ZM44.0763 136.742V134.832H41.4982L39.2933 143.954L39.0054 143.898L39.693 137.142V134.832H37.5528V137.142L38.2364 143.898L37.9524 143.954L35.7476 134.832H33.1694V136.742L33.6592 136.884C35.0599 137.288 35.9494 139.121 36.7794 141.958C37.0375 142.877 37.2389 143.59 37.3554 144.25L37.1232 144.478L34.7772 144.25L33.3158 155.721H35.6363L36.2637 147.624C36.4356 145.452 36.6937 144.967 37.4974 145.079C37.5277 145.453 37.5532 145.826 37.5532 146.225V155.721H39.6934V146.225C39.6934 145.826 39.7194 145.453 39.7796 145.079C40.5784 144.967 40.8115 145.483 40.9829 147.624L41.6103 155.721H43.9308L42.4698 144.25L40.1234 144.478L39.9216 144.281C40.0636 143.619 40.2351 142.877 40.4672 141.958C41.1553 139.12 42.1863 137.288 43.5874 136.884L44.0772 136.742H44.0763ZM53.4945 134.836H51.4576L48.69 152.196H48.3462L48.7503 145.589L48.956 134.836H46.8976V155.716H48.9261L51.6854 138.356H52.0292L51.6291 144.963L51.4576 155.716H53.4945V134.836ZM59.5002 145.19L59.4703 144.967C60.9141 144.709 61.9112 143.653 61.9112 140.992V138.416C61.9112 135.613 60.7985 134.553 59.1392 134.553C57.6479 134.553 56.9344 135.442 56.9344 137.218C56.9344 138.674 56.9946 140.103 57.218 142.709H59.2549C57.6475 138.704 57.4756 138.159 57.4756 137.36C57.4756 136.729 57.7895 136.502 58.3655 136.502C59.7446 136.502 59.7706 137.133 59.7706 138.134V142.71C59.7706 144.109 59.225 144.851 58.2793 144.851H57.6348V145.418H58.2749C59.3621 145.418 59.8739 146.101 59.8739 147.848V151.677C59.8739 153.737 59.2764 154.051 58.7053 154.051C57.9614 154.051 57.6778 152.965 57.622 151.136L57.5363 147.762H57.1318L57.0461 151.221C56.9902 153.935 57.819 156 59.534 156C61.159 156 62.0141 155.111 62.0141 152.651V149.277C62.0141 147.362 61.8427 145.589 61.0429 145.023L59.4998 145.19H59.5002ZM70.4102 144.439H67.9859V134.823H65.8461V155.72H67.9859V145.006H70.4102V155.72H72.5499V134.823H70.4102V144.439ZM82.8325 134.836H80.7952L78.028 152.196H77.6842L78.0878 145.589L78.294 134.836H76.2355V155.716H78.2641L81.0234 138.356H81.3672L80.9671 144.963L80.7952 155.716H82.8325V134.836Z" fill="white"/>
</g>
<defs>
<clipPath id="clip0_22_445">
<rect width="116" height="156" fill="white"/>
</clipPath>
</defs>
</svg>
