<svg width="85" height="85" viewBox="0 0 85 85" fill="none" xmlns="http://www.w3.org/2000/svg">
<path d="M32.8562 42.0896C32.8562 42.2202 32.8589 42.3493 32.8645 42.4781L0 48.192V42.0896C0 40.0432 0.146144 38.0305 0.428966 36.0625L32.8645 41.7023C32.8589 41.8299 32.8562 41.9601 32.8562 42.0896V42.0896Z" fill="#F58F63"/>
<path d="M84.18 42.0904V48.1928L51.314 42.4788C51.3204 42.3501 51.3227 42.221 51.3227 42.0904C51.3227 41.9609 51.3204 41.8306 51.314 41.703L83.7507 36.0625C84.0335 38.0313 84.18 40.0444 84.18 42.0904Z" fill="#F58F63"/>
<path d="M81.1894 26.4782L50.2732 37.8134C50.154 37.5836 50.0237 37.3591 49.8848 37.1406L75.1525 16.041C77.635 19.1876 79.678 22.697 81.1894 26.4782V26.4782Z" fill="#F58F63"/>
<path d="M68.1376 9.0268L47.0376 34.2938C46.8207 34.1556 46.5973 34.0246 46.3667 33.9057L57.7019 2.99023C61.4816 4.50051 64.9909 6.54387 68.1376 9.0268Z" fill="#F58F63"/>
<path d="M48.1171 0.428966L42.4781 32.8653C42.3497 32.8596 42.2195 32.8573 42.0896 32.8573C41.9601 32.8573 41.8299 32.8596 41.7015 32.8653L36.0625 0.428966C38.0309 0.146144 40.044 0 42.0896 0C44.1371 0 46.1487 0.146144 48.1171 0.428966V0.428966Z" fill="#F58F63"/>
<path d="M37.8126 33.9057C37.5828 34.0246 37.3576 34.1556 37.1402 34.2938L16.041 9.0268C19.1876 6.5435 22.697 4.50127 26.4767 2.99023L37.8126 33.9057Z" fill="#F58F63"/>
<path d="M84.1799 58.7882V75.7613L51.3149 47.7305C51.3233 47.3723 51.3138 47.2133 51.3225 46.832L84.1799 58.7882Z" fill="white"/>
<path d="M0 58.7882V75.7613L32.8645 47.7305C32.8562 47.3723 32.8653 47.2133 32.857 46.832L0 58.7882H0Z" fill="#F58F63"/>
<path d="M34.2935 37.1406C34.1545 37.3583 34.0243 37.5824 33.905 37.8123L2.99072 26.477C4.501 22.6966 6.54474 19.1876 9.02729 16.041L34.2935 37.1406Z" fill="#F58F63"/>
<path d="M44.6929 50.9157H39.487L37.5542 40H46.6257L44.6929 50.9157Z" fill="#F58F63"/>
<path d="M46.254 63.2138C46.254 65.548 44.386 67.4478 42.0897 67.4478C39.7934 67.4478 37.925 65.5484 37.925 63.2138C37.925 60.8797 39.793 58.9798 42.0897 58.9798C44.3856 58.9798 46.254 60.8793 46.254 63.2138ZM48.601 56.5938C46.8621 54.8254 44.5495 53.8516 42.0897 53.8516C39.6299 53.8516 37.3177 54.8257 35.578 56.5938C33.8386 58.3623 32.8804 60.7131 32.8804 63.2138C32.8804 65.7142 33.8386 68.0661 35.578 69.8339C37.3177 71.6027 39.6299 72.5761 42.0897 72.5761C44.5495 72.5761 46.8617 71.6023 48.601 69.8339C50.3408 68.0661 51.2986 65.7146 51.2986 63.2138C51.2986 60.7135 50.3408 58.3623 48.601 56.5938Z" fill="#F58F63"/>
<path fill-rule="evenodd" clip-rule="evenodd" d="M29 85L33.7109 75H50.2891L55 85H29Z" fill="#F58F63"/>
</svg>
